# xmcd
#
# Track frame offsets:
#	182
#	16432
#	29582
#	39952
#	54537
#	68992
#	81937
#	96795
#	110657
#	124032
#	139790
#	152467
#	166607
#	179145
#	192787
#	205975
#	220290
#	233920
#	248775
#	264637
#	278847
#	292807
#
# Disc length: 4096 seconds
#
# Revision: 0
# Processed by: cddbd v1.5.1PL2 Copyright (c) Steve Scherf et al.
# Submitted via: EasyCDDAExtractor 10.0.1.1
#
DISCID=3e0ffe16
DTITLE=Tohama - Etoiles De La Chanson
DYEAR=1997
DGENRE=Retro
TTITLE0=C'est Loin Tout Cà
TTITLE1=Le Vent M'A Dit Une Chanson
TTITLE2=Tout Est Rythme
TTITLE3=Le Petit Trottin (Simple Histoire)
TTITLE4=Pigalle
TTITLE5=Dans La Balançoire
TTITLE6=Ton Amour
TTITLE7=Vagabond (Le Chant Du Gardian)
TTITLE8=Bilbao
TTITLE9=Le Petit Cousin
TTITLE10=C'est Une Rumba
TTITLE11=R^ver Dans L'Ombre
TTITLE12=Ay Ay Ay Mama
TTITLE13=Tchou-Tchou (Chiu-Chiu)
TTITLE14=Tu Mens [CD)
TTITLE15=Je M'Ennuie Sans Vous
TTITLE16=Suzanna, Youpi Youp La La !
TTITLE17=Recommence
TTITLE18=Tu M'Apprendras
TTITLE19=Tendrement
TTITLE20=Ca S'Fait Pas (No Can Do)
TTITLE21=On Chante Dans Mon Quartier
EXTD=
EXTT0=
EXTT1=
EXTT2=
EXTT3=
EXTT4=
EXTT5=
EXTT6=
EXTT7=
EXTT8=
EXTT9=
EXTT10=
EXTT11=
EXTT12=
EXTT13=
EXTT14=
EXTT15=
EXTT16=
EXTT17=
EXTT18=
EXTT19=
EXTT20=
EXTT21=
PLAYORDER=
